%
M48
M72
T01C0.0240
T02C0.0315
T03C0.0320
T04C0.0360
T05C0.0380
T06C0.0394
T07C0.0400
T08C0.0440
%
T01
X5730Y3770
X5310Y5100
X6570Y5520
X4120Y5240
X3070Y7620
X3420Y9790
X2300Y11260
X3630Y11960
X7410Y9370
X8250Y8320
X7130Y7970
X9580Y5450
X9860Y3840
X11680Y4610
X12240Y4540
X13150Y5450
X13360Y6290
X11330Y6220
X14200Y4260
X16230Y5380
X18400Y5940
X18820Y6430
X18400Y7270
X15810Y9580
X15460Y9020
X13220Y11050
X12380Y12730
X13360Y13150
X12380Y13990
X10070Y13920
X8460Y12590
X11050Y10210
X15460Y13150
X17140Y15600
X19030Y15460
X19660Y14690
X20010Y13640
X19520Y12380
X19240Y4330
X18960Y3420
X12310Y2230
X10700Y2230
X5450Y15740
T02
X4600Y15319
X4100Y15881
X3600Y15319
X3100Y15881
T03
X4350Y13600
X4350Y12600
X5850Y12600
X5850Y13600
X6350Y14600
X6350Y15600
X7600Y15600
X7600Y14600
X7350Y13600
X7350Y12600
X10350Y12100
X10350Y13100
X11350Y13100
X10350Y9100
X10350Y7600
X10350Y6600
X11850Y6600
X11850Y7600
T04
X16350Y12100
X16350Y13100
X16350Y14100
X16350Y15100
X16350Y16100
T05
X14850Y16100
X14850Y15100
X14850Y14100
X14850Y13100
X14850Y12100
X14850Y11100
X14850Y10100
X14850Y9100
X14850Y8100
X14850Y7100
X14850Y6100
X14850Y5100
X14850Y4100
X14850Y3100
X13850Y3100
X12850Y3100
X11850Y3100
X10850Y3100
X9850Y3100
X8850Y3100
X8850Y4100
X8850Y5100
X8850Y6100
X8850Y7100
X8850Y8100
X8850Y9100
X8850Y10100
X8850Y11100
X8850Y12100
X8850Y13100
X8850Y14100
X8850Y15100
X8850Y16100
T06
X16850Y9600
X17850Y9600
X17850Y8600
X16850Y8600
X16850Y7600
X17850Y7600
X17850Y6600
X16850Y6600
X16850Y5600
X17850Y5600
X17850Y4600
X16850Y4600
X16850Y3600
X17850Y3600
X17850Y2600
X16850Y2600
T07
X13350Y9600
X16350Y10600
X17350Y10600
X18350Y10600
X18350Y14350
X18350Y15850
X7350Y11100
X7350Y10100
X6350Y10100
X5350Y10100
X5350Y11100
X6350Y11100
X4350Y11100
X4350Y10100
T08
X11850Y10100
X11850Y11600
M30
