G75*
%MOIN*%
%OFA0B0*%
%FSLAX25Y25*%
%IPPOS*%
%LPD*%
%AMOC8*
5,1,8,0,0,1.08239X$1,22.5*
%
%ADD10C,0.00000*%
%ADD11C,0.06000*%
%ADD12OC8,0.06300*%
%ADD13R,0.03937X0.05512*%
%ADD14C,0.05800*%
%ADD15OC8,0.05150*%
%ADD16C,0.05150*%
%ADD17OC8,0.08500*%
%ADD18C,0.05600*%
%ADD19OC8,0.06000*%
%ADD20OC8,0.05200*%
%ADD21R,0.07900X0.04300*%
%ADD22C,0.05937*%
%ADD23C,0.02400*%
%ADD24C,0.04000*%
%ADD25C,0.01600*%
D10*
X0001000Y0001000D02*
X0001000Y0190961D01*
X0219701Y0190961D01*
X0219701Y0001000D01*
X0001000Y0001000D01*
D11*
X0163500Y0103000D02*
X0163500Y0109000D01*
X0173500Y0109000D02*
X0173500Y0103000D01*
X0183500Y0103000D02*
X0183500Y0109000D01*
D12*
X0118500Y0076000D03*
X0118500Y0066000D03*
X0103500Y0066000D03*
X0103500Y0076000D03*
D13*
X0129760Y0116669D03*
X0137240Y0116669D03*
X0133500Y0125331D03*
D14*
X0148500Y0121000D03*
X0148500Y0131000D03*
X0148500Y0141000D03*
X0148500Y0151000D03*
X0148500Y0161000D03*
X0148500Y0111000D03*
X0148500Y0101000D03*
X0148500Y0091000D03*
X0148500Y0081000D03*
X0148500Y0071000D03*
X0148500Y0061000D03*
X0148500Y0051000D03*
X0148500Y0041000D03*
X0148500Y0031000D03*
X0138500Y0031000D03*
X0128500Y0031000D03*
X0118500Y0031000D03*
X0108500Y0031000D03*
X0098500Y0031000D03*
X0088500Y0031000D03*
X0088500Y0041000D03*
X0088500Y0051000D03*
X0088500Y0061000D03*
X0088500Y0071000D03*
X0088500Y0081000D03*
X0088500Y0091000D03*
X0088500Y0101000D03*
X0088500Y0111000D03*
X0088500Y0121000D03*
X0088500Y0131000D03*
X0088500Y0141000D03*
X0088500Y0151000D03*
X0088500Y0161000D03*
D15*
X0046000Y0153187D03*
X0041000Y0158813D03*
X0031000Y0158813D03*
D16*
X0036000Y0153187D03*
D17*
X0118500Y0116000D03*
X0118500Y0101000D03*
X0133500Y0096000D03*
X0183500Y0143500D03*
X0183500Y0158500D03*
D18*
X0166300Y0161000D02*
X0160700Y0161000D01*
X0160700Y0151000D02*
X0166300Y0151000D01*
X0166300Y0141000D02*
X0160700Y0141000D01*
X0160700Y0131000D02*
X0166300Y0131000D01*
X0166300Y0121000D02*
X0160700Y0121000D01*
D19*
X0073500Y0111000D03*
X0073500Y0101000D03*
X0063500Y0101000D03*
X0053500Y0101000D03*
X0053500Y0111000D03*
X0063500Y0111000D03*
X0043500Y0111000D03*
X0043500Y0101000D03*
D20*
X0043500Y0126000D03*
X0043500Y0136000D03*
X0058500Y0136000D03*
X0058500Y0126000D03*
X0073500Y0126000D03*
X0073500Y0136000D03*
X0076000Y0146000D03*
X0076000Y0156000D03*
X0063500Y0156000D03*
X0063500Y0146000D03*
X0103500Y0131000D03*
X0103500Y0121000D03*
X0113500Y0131000D03*
X0103500Y0091000D03*
D21*
X0071200Y0071000D03*
X0071200Y0061000D03*
X0035800Y0061000D03*
X0035800Y0071000D03*
D22*
X0168500Y0066000D03*
X0178500Y0066000D03*
X0178500Y0056000D03*
X0168500Y0056000D03*
X0168500Y0046000D03*
X0178500Y0046000D03*
X0178500Y0036000D03*
X0168500Y0036000D03*
X0168500Y0026000D03*
X0178500Y0026000D03*
X0178500Y0076000D03*
X0168500Y0076000D03*
X0168500Y0086000D03*
X0178500Y0086000D03*
X0178500Y0096000D03*
X0168500Y0096000D03*
D23*
X0195200Y0118200D02*
X0198000Y0115400D01*
X0198000Y0036300D01*
X0176300Y0014600D01*
X0137100Y0014600D01*
X0121000Y0030700D01*
X0119600Y0030700D01*
X0118500Y0031000D01*
X0118200Y0031400D01*
X0116800Y0032800D01*
X0116800Y0046100D01*
X0108500Y0031000D02*
X0108400Y0030700D01*
X0102800Y0025100D01*
X0086700Y0025100D01*
X0074100Y0037700D01*
X0057300Y0037700D01*
X0048200Y0046800D01*
X0048200Y0047500D01*
X0034900Y0047500D01*
X0018100Y0064300D01*
X0018100Y0157400D01*
X0038400Y0177700D01*
X0178400Y0177700D01*
X0196600Y0159500D01*
X0196600Y0146900D01*
X0200100Y0136400D02*
X0186100Y0150400D01*
X0181900Y0150400D01*
X0176300Y0156000D01*
X0176300Y0158800D01*
X0164400Y0170700D01*
X0144800Y0170700D01*
X0128700Y0154600D01*
X0128700Y0121700D01*
X0129400Y0121000D01*
X0129400Y0116800D01*
X0129760Y0116669D01*
X0137100Y0116100D02*
X0137240Y0116669D01*
X0138500Y0116800D01*
X0138500Y0158800D01*
X0146200Y0166500D01*
X0151100Y0166500D01*
X0154600Y0163000D01*
X0154600Y0131500D01*
X0137100Y0116100D02*
X0137100Y0100000D01*
X0133600Y0096500D01*
X0133500Y0096000D01*
X0123800Y0139900D02*
X0116100Y0139900D01*
X0095100Y0160900D01*
X0088800Y0160900D01*
X0088500Y0161000D01*
X0087400Y0160900D01*
X0078300Y0160900D01*
X0077600Y0161600D01*
X0058700Y0161600D01*
X0054500Y0157400D01*
X0043500Y0111000D02*
X0043300Y0110500D01*
X0040500Y0110500D01*
X0029300Y0099300D01*
X0029300Y0087400D01*
X0048200Y0068500D01*
X0048200Y0047500D01*
X0195200Y0118200D02*
X0195200Y0123800D01*
D24*
X0195200Y0123800D03*
X0200100Y0136400D03*
X0196600Y0146900D03*
X0190300Y0154600D03*
X0171400Y0156000D03*
X0154600Y0131500D03*
X0133600Y0131500D03*
X0123800Y0127300D03*
X0123800Y0139900D03*
X0100700Y0139200D03*
X0084600Y0125900D03*
X0110500Y0102100D03*
X0132200Y0110500D03*
X0154600Y0090200D03*
X0158100Y0095800D03*
X0184000Y0072700D03*
X0188200Y0064300D03*
X0184000Y0059400D03*
X0192400Y0043300D03*
X0189600Y0034200D03*
X0162300Y0053800D03*
X0142000Y0042600D03*
X0131500Y0054500D03*
X0133600Y0062900D03*
X0116800Y0046100D03*
X0122400Y0045400D03*
X0113300Y0062200D03*
X0095800Y0054500D03*
X0098600Y0038400D03*
X0107000Y0022300D03*
X0123100Y0022300D03*
X0065700Y0055200D03*
X0053100Y0051000D03*
X0041200Y0052400D03*
X0057300Y0037700D03*
X0030700Y0076200D03*
X0034200Y0097900D03*
X0023000Y0112600D03*
X0036300Y0119600D03*
X0074100Y0093700D03*
X0082500Y0083200D03*
X0071300Y0079700D03*
X0054500Y0157400D03*
D25*
X0059400Y0153200D02*
X0062200Y0156000D01*
X0063500Y0156000D01*
X0059400Y0153200D02*
X0046100Y0153200D01*
X0046000Y0153187D01*
X0041200Y0151100D02*
X0044000Y0148300D01*
X0058700Y0148300D01*
X0061500Y0151100D01*
X0069900Y0151100D01*
X0074800Y0156000D01*
X0076000Y0156000D01*
X0074100Y0151100D02*
X0081100Y0151100D01*
X0086000Y0156000D01*
X0095100Y0156000D01*
X0123800Y0127300D01*
X0133500Y0125331D02*
X0133600Y0125900D01*
X0133600Y0131500D01*
X0143400Y0123100D02*
X0146200Y0125900D01*
X0178400Y0125900D01*
X0191700Y0112600D01*
X0191700Y0088800D01*
X0179100Y0076200D01*
X0178500Y0076000D01*
X0184000Y0072700D02*
X0194500Y0083200D01*
X0194500Y0114000D01*
X0191000Y0117500D01*
X0191000Y0123100D01*
X0163700Y0150400D01*
X0163500Y0151000D01*
X0171400Y0156000D02*
X0183300Y0144100D01*
X0183500Y0143500D01*
X0190300Y0154600D02*
X0190300Y0160900D01*
X0177000Y0174200D01*
X0039800Y0174200D01*
X0023000Y0157400D01*
X0023000Y0112600D01*
X0025800Y0109100D02*
X0036300Y0119600D01*
X0038400Y0124500D02*
X0051700Y0111200D01*
X0053100Y0111200D01*
X0053500Y0111000D01*
X0053500Y0101000D02*
X0053800Y0100700D01*
X0056600Y0100700D01*
X0074100Y0083200D01*
X0082500Y0083200D01*
X0086000Y0086000D02*
X0082500Y0089500D01*
X0072000Y0089500D01*
X0063600Y0097900D01*
X0063600Y0100700D01*
X0063500Y0101000D01*
X0068500Y0098600D02*
X0068500Y0113300D01*
X0060800Y0121000D01*
X0056600Y0121000D01*
X0044000Y0133600D01*
X0044000Y0135700D01*
X0043500Y0136000D01*
X0041200Y0140600D02*
X0038400Y0137800D01*
X0038400Y0124500D01*
X0046100Y0140600D02*
X0055900Y0130800D01*
X0060800Y0130800D01*
X0079000Y0112600D01*
X0079000Y0103500D01*
X0088100Y0094400D01*
X0088100Y0091600D01*
X0088500Y0091000D01*
X0090900Y0086000D02*
X0086000Y0086000D01*
X0090900Y0086000D02*
X0093700Y0083200D01*
X0093700Y0058700D01*
X0090900Y0055900D01*
X0086000Y0055900D01*
X0085300Y0055200D01*
X0083200Y0055200D01*
X0083200Y0048900D01*
X0086000Y0046100D01*
X0090900Y0046100D01*
X0098600Y0038400D01*
X0088500Y0041000D02*
X0088100Y0041200D01*
X0062900Y0041200D01*
X0053100Y0051000D01*
X0065700Y0055200D02*
X0083200Y0055200D01*
X0088500Y0051000D02*
X0093000Y0051000D01*
X0093700Y0050300D01*
X0118900Y0050300D01*
X0122400Y0046800D01*
X0122400Y0045400D01*
X0121000Y0053100D02*
X0116100Y0053100D01*
X0103500Y0065700D01*
X0103500Y0066000D01*
X0097900Y0058700D02*
X0097900Y0092300D01*
X0101400Y0095800D01*
X0106300Y0095800D01*
X0135000Y0067100D01*
X0135700Y0067100D01*
X0143400Y0059400D01*
X0143400Y0058700D01*
X0146200Y0055900D01*
X0160200Y0055900D01*
X0162300Y0053800D01*
X0165800Y0051000D02*
X0164400Y0049600D01*
X0150400Y0049600D01*
X0149000Y0051000D01*
X0148500Y0051000D01*
X0145500Y0046100D02*
X0167900Y0046100D01*
X0168500Y0046000D01*
X0173500Y0040500D02*
X0178400Y0045400D01*
X0178500Y0046000D01*
X0173500Y0040500D02*
X0173500Y0023700D01*
X0170700Y0020900D01*
X0151100Y0020900D01*
X0143400Y0028600D01*
X0143400Y0034900D01*
X0122400Y0055900D01*
X0121000Y0055900D01*
X0114700Y0062200D01*
X0113300Y0062200D01*
X0121000Y0053100D02*
X0138500Y0035600D01*
X0138500Y0031000D01*
X0131500Y0030700D02*
X0144100Y0018100D01*
X0172100Y0018100D01*
X0178400Y0024400D01*
X0178400Y0025800D01*
X0178500Y0026000D01*
X0189600Y0034200D02*
X0189600Y0039800D01*
X0188200Y0041200D01*
X0188200Y0064300D01*
X0190300Y0068500D02*
X0181200Y0068500D01*
X0179100Y0066400D01*
X0178500Y0066000D01*
X0184000Y0059400D02*
X0184000Y0053800D01*
X0181200Y0051000D01*
X0165800Y0051000D01*
X0168500Y0066000D02*
X0167900Y0066400D01*
X0153900Y0080400D01*
X0149000Y0080400D01*
X0148500Y0081000D01*
X0154600Y0090200D02*
X0168600Y0076200D01*
X0168500Y0076000D01*
X0168500Y0086000D02*
X0167900Y0086000D01*
X0158100Y0095800D01*
X0153900Y0099300D02*
X0153900Y0112600D01*
X0150400Y0116100D01*
X0146200Y0116100D01*
X0143400Y0118900D01*
X0143400Y0123100D01*
X0148500Y0121000D02*
X0153900Y0121000D01*
X0160900Y0114000D01*
X0186100Y0114000D01*
X0188900Y0111200D01*
X0188900Y0095800D01*
X0179100Y0086000D01*
X0178500Y0086000D01*
X0190300Y0068500D02*
X0192400Y0066400D01*
X0192400Y0043300D01*
X0148500Y0061000D02*
X0148300Y0061500D01*
X0139900Y0069900D01*
X0136400Y0069900D01*
X0106300Y0100000D01*
X0106300Y0100700D01*
X0090900Y0116100D01*
X0086000Y0116100D01*
X0080400Y0121700D01*
X0080400Y0135700D01*
X0076200Y0139900D01*
X0076200Y0145500D01*
X0076000Y0146000D01*
X0074100Y0151100D02*
X0069200Y0146200D01*
X0063600Y0146200D01*
X0063500Y0146000D01*
X0059400Y0143400D02*
X0066400Y0136400D01*
X0073400Y0136400D01*
X0073500Y0136000D01*
X0084600Y0125900D02*
X0090900Y0125900D01*
X0109100Y0107700D01*
X0121000Y0107700D01*
X0126600Y0102100D01*
X0126600Y0093700D01*
X0130800Y0089500D01*
X0137100Y0089500D01*
X0148300Y0100700D01*
X0148500Y0101000D01*
X0153900Y0099300D02*
X0149000Y0094400D01*
X0149000Y0091600D01*
X0148500Y0091000D01*
X0132200Y0110500D02*
X0123800Y0110500D01*
X0118900Y0115400D01*
X0118500Y0116000D01*
X0103500Y0121000D02*
X0103500Y0131000D01*
X0100700Y0139200D02*
X0088800Y0151100D01*
X0088500Y0151000D01*
X0059400Y0143400D02*
X0039100Y0143400D01*
X0031400Y0151100D01*
X0031400Y0158800D01*
X0031000Y0158813D01*
X0041000Y0158813D02*
X0041200Y0158800D01*
X0041200Y0151100D01*
X0041200Y0140600D02*
X0046100Y0140600D01*
X0025800Y0109100D02*
X0025800Y0061500D01*
X0034900Y0052400D01*
X0041200Y0052400D01*
X0035800Y0061000D02*
X0035600Y0061500D01*
X0035600Y0070600D01*
X0035800Y0071000D01*
X0035600Y0071300D01*
X0030700Y0076200D01*
X0034200Y0097900D02*
X0070600Y0061500D01*
X0071200Y0061000D01*
X0071200Y0071000D02*
X0071300Y0071300D01*
X0071300Y0079700D01*
X0074100Y0093700D02*
X0072000Y0095800D01*
X0071300Y0095800D01*
X0068500Y0098600D01*
X0088500Y0121000D02*
X0091600Y0121000D01*
X0110500Y0102100D01*
X0103500Y0091000D02*
X0103500Y0076000D01*
X0097900Y0058700D02*
X0095800Y0056600D01*
X0095800Y0054500D01*
X0128500Y0031000D02*
X0128700Y0030700D01*
X0131500Y0030700D01*
X0123100Y0022300D02*
X0107000Y0022300D01*
X0142000Y0042600D02*
X0145500Y0046100D01*
X0131500Y0054500D02*
X0131500Y0060800D01*
X0133600Y0062900D01*
M02*
