%
M48
M72
T01C0.0236
T02C0.0315
T03C0.0320
T04C0.0360
T05C0.0380
T06C0.0400
T07C0.0440
T08C0.1102
%
T01
X6048Y4037
X5103Y6084
X7622Y6399
X9670Y4037
X11087Y5297
X11087Y6242
X13134Y6557
X7315Y12419
X9512Y14903
X8567Y15691
X7890Y16769
X9040Y18053
X9985Y17108
X7937Y20100
X4473Y18840
X4473Y16793
X3843Y8446
X18804Y16006
X19197Y14509
X20536Y12226
X22583Y9864
X21323Y7344
T02
X6971Y18819
X6471Y19381
X5971Y18819
X5471Y19381
T03
X5721Y17600
X5721Y16600
X9059Y19096
X9059Y20096
X11221Y15628
X11221Y14628
X9721Y12100
X8721Y12100
X9748Y8813
X10748Y8813
X15083Y9104
X16615Y11088
X16615Y12088
X15083Y12104
X15221Y14628
X15221Y15628
X14036Y15628
X14036Y14628
X20389Y19115
X20389Y20100
X20389Y21084
T04
X17221Y20100
X17221Y19100
X17221Y18100
X17221Y17100
X17221Y16100
T05
X17221Y13600
X16221Y13600
X15221Y13600
X14221Y13600
X13221Y13600
X12221Y13600
X11221Y13600
X10221Y13600
X9221Y13600
X8221Y13600
X7221Y13600
X6221Y13600
X5221Y13600
X5221Y7600
X6221Y7600
X7221Y7600
X8221Y7600
X9221Y7600
X10221Y7600
X11221Y7600
X12221Y7600
X13221Y7600
X14221Y7600
X15221Y7600
X16221Y7600
X17221Y7600
X18221Y7600
X18221Y8600
X18221Y9600
X18221Y10600
X18221Y11600
X18221Y12600
X18221Y13600
T06
X16914Y8840
X13685Y8958
X12268Y8958
X11678Y10572
X13331Y10572
X8721Y11100
X5221Y11600
X3721Y12100
X2721Y12100
X1721Y12100
X1721Y13600
X4355Y15100
X12622Y15297
X8599Y5100
X8599Y4100
X7599Y4100
X7599Y5100
X7599Y3100
X8599Y3100
X8599Y2100
X7599Y2100
T07
X2721Y6100
X2721Y7600
T08
X1205Y1084
X1205Y20769
X22859Y20769
X22859Y1084
M30
