G75*
%MOIN*%
%OFA0B0*%
%FSLAX25Y25*%
%IPPOS*%
%LPD*%
%AMOC8*
5,1,8,0,0,1.08239X$1,22.5*
%
%ADD10C,0.00600*%
%ADD11C,0.00500*%
%ADD12C,0.06000*%
%ADD13C,0.07000*%
%ADD14C,0.07600*%
%ADD15OC8,0.05150*%
%ADD16C,0.05150*%
%ADD17OC8,0.08500*%
%ADD18C,0.05600*%
%ADD19C,0.06600*%
%ADD20C,0.05200*%
%ADD21C,0.03200*%
D10*
X0021913Y0022119D02*
X0026184Y0022119D01*
X0026184Y0028524D01*
X0021913Y0028524D01*
X0024048Y0025322D02*
X0026184Y0025322D01*
X0028359Y0024254D02*
X0028359Y0023186D01*
X0029426Y0022119D01*
X0031562Y0022119D01*
X0032629Y0023186D01*
X0034804Y0023186D02*
X0035872Y0022119D01*
X0038007Y0022119D01*
X0039075Y0023186D01*
X0039075Y0028524D01*
X0041250Y0027457D02*
X0042317Y0028524D01*
X0044452Y0028524D01*
X0045520Y0027457D01*
X0045520Y0023186D01*
X0044452Y0022119D01*
X0042317Y0022119D01*
X0041250Y0023186D01*
X0041250Y0027457D01*
X0042317Y0032619D02*
X0041250Y0033686D01*
X0041250Y0037957D01*
X0042317Y0039024D01*
X0044452Y0039024D01*
X0045520Y0037957D01*
X0045520Y0033686D01*
X0044452Y0032619D01*
X0042317Y0032619D01*
X0047695Y0028524D02*
X0047695Y0022119D01*
X0047695Y0025322D02*
X0051966Y0025322D01*
X0051966Y0028524D02*
X0051966Y0022119D01*
X0045610Y0017548D02*
X0045610Y0013278D01*
X0043475Y0011143D01*
X0041339Y0013278D01*
X0041339Y0017548D01*
X0039164Y0016480D02*
X0038097Y0017548D01*
X0035961Y0017548D01*
X0034894Y0016480D01*
X0034894Y0015413D01*
X0039164Y0011143D01*
X0034894Y0011143D01*
X0032719Y0011143D02*
X0032719Y0012210D01*
X0031651Y0012210D01*
X0031651Y0011143D01*
X0032719Y0011143D01*
X0029496Y0012210D02*
X0025226Y0016480D01*
X0025226Y0012210D01*
X0026293Y0011143D01*
X0028428Y0011143D01*
X0029496Y0012210D01*
X0029496Y0016480D01*
X0028428Y0017548D01*
X0026293Y0017548D01*
X0025226Y0016480D01*
X0028359Y0024254D02*
X0029426Y0025322D01*
X0031562Y0025322D01*
X0032629Y0026389D01*
X0032629Y0027457D01*
X0031562Y0028524D01*
X0029426Y0028524D01*
X0028359Y0027457D01*
X0028359Y0032619D02*
X0028359Y0039024D01*
X0030494Y0036889D01*
X0032629Y0039024D01*
X0032629Y0032619D01*
X0034804Y0028524D02*
X0034804Y0023186D01*
X0024048Y0032619D02*
X0024048Y0035822D01*
X0021913Y0037957D01*
X0021913Y0039024D01*
X0024048Y0035822D02*
X0026184Y0037957D01*
X0026184Y0039024D01*
X0024062Y0043119D02*
X0028332Y0043119D01*
X0028332Y0049524D01*
X0024062Y0049524D01*
X0021887Y0047389D02*
X0019751Y0049524D01*
X0017616Y0047389D01*
X0017616Y0043119D01*
X0015441Y0043119D02*
X0015441Y0049524D01*
X0014374Y0046322D02*
X0011171Y0043119D01*
X0015441Y0045254D02*
X0011171Y0049524D01*
X0017616Y0046322D02*
X0021887Y0046322D01*
X0021887Y0047389D02*
X0021887Y0043119D01*
X0026197Y0046322D02*
X0028332Y0046322D01*
X0030507Y0046322D02*
X0030507Y0048457D01*
X0031575Y0049524D01*
X0034778Y0049524D01*
X0034778Y0043119D01*
X0034778Y0045254D02*
X0031575Y0045254D01*
X0030507Y0046322D01*
X0036953Y0045254D02*
X0036953Y0044186D01*
X0038020Y0043119D01*
X0040155Y0043119D01*
X0041223Y0044186D01*
X0040155Y0046322D02*
X0038020Y0046322D01*
X0036953Y0045254D01*
X0036953Y0048457D02*
X0038020Y0049524D01*
X0040155Y0049524D01*
X0041223Y0048457D01*
X0041223Y0047389D01*
X0040155Y0046322D01*
X0047695Y0039024D02*
X0051966Y0039024D01*
X0049830Y0039024D02*
X0049830Y0032619D01*
X0049830Y0043119D02*
X0051966Y0043119D01*
X0050898Y0043119D02*
X0050898Y0049524D01*
X0051966Y0049524D02*
X0049830Y0049524D01*
X0025714Y0156812D02*
X0019308Y0156812D01*
X0019308Y0160015D01*
X0020376Y0161082D01*
X0021443Y0161082D01*
X0022511Y0160015D01*
X0022511Y0156812D01*
X0022511Y0160015D02*
X0023578Y0161082D01*
X0024646Y0161082D01*
X0025714Y0160015D01*
X0025714Y0156812D01*
X0024646Y0163257D02*
X0020376Y0163257D01*
X0019308Y0164325D01*
X0019308Y0166460D01*
X0020376Y0167528D01*
X0024646Y0167528D01*
X0025714Y0166460D01*
X0025714Y0164325D01*
X0024646Y0163257D01*
X0025714Y0169703D02*
X0025714Y0173973D01*
X0025714Y0171838D02*
X0019308Y0171838D01*
X0015214Y0173973D02*
X0014146Y0173973D01*
X0012011Y0171838D01*
X0008808Y0171838D01*
X0008808Y0167528D02*
X0013078Y0167528D01*
X0015214Y0165392D01*
X0013078Y0163257D01*
X0008808Y0163257D01*
X0008808Y0161082D02*
X0008808Y0156812D01*
X0015214Y0156812D01*
X0012011Y0163257D02*
X0012011Y0167528D01*
X0014146Y0169703D02*
X0012011Y0171838D01*
X0014146Y0169703D02*
X0015214Y0169703D01*
X0015214Y0176148D02*
X0008808Y0176148D01*
X0008808Y0180419D01*
X0008808Y0182594D02*
X0015214Y0182594D01*
X0015214Y0185797D01*
X0014146Y0186864D01*
X0012011Y0186864D01*
X0010943Y0185797D01*
X0010943Y0182594D01*
X0010943Y0184729D02*
X0008808Y0186864D01*
X0015214Y0180419D02*
X0015214Y0176148D01*
X0012011Y0176148D02*
X0012011Y0178283D01*
X0019308Y0178283D02*
X0025714Y0178283D01*
X0025714Y0176148D02*
X0025714Y0180419D01*
X0024646Y0182594D02*
X0020376Y0182594D01*
X0019308Y0183661D01*
X0019308Y0185797D01*
X0020376Y0186864D01*
X0024646Y0186864D01*
X0025714Y0185797D01*
X0025714Y0183661D01*
X0024646Y0182594D01*
X0025714Y0189039D02*
X0019308Y0189039D01*
X0023578Y0191174D02*
X0025714Y0193310D01*
X0019308Y0193310D01*
X0023578Y0191174D02*
X0025714Y0189039D01*
D11*
X0218994Y0188770D02*
X0225100Y0188770D01*
X0225100Y0186735D02*
X0225100Y0190805D01*
X0225100Y0192813D02*
X0218994Y0192813D01*
X0218994Y0196883D01*
X0218994Y0198890D02*
X0223064Y0198890D01*
X0225100Y0200925D01*
X0223064Y0202960D01*
X0218994Y0202960D01*
X0218994Y0204967D02*
X0225100Y0204967D01*
X0223064Y0207002D01*
X0225100Y0209037D01*
X0218994Y0209037D01*
X0222047Y0202960D02*
X0222047Y0198890D01*
X0222047Y0194848D02*
X0222047Y0192813D01*
X0225100Y0192813D02*
X0225100Y0196883D01*
X0228894Y0195851D02*
X0228894Y0199921D01*
X0228894Y0201928D02*
X0232964Y0201928D01*
X0235000Y0203963D01*
X0232964Y0205998D01*
X0228894Y0205998D01*
X0228894Y0208005D02*
X0228894Y0211058D01*
X0229912Y0212076D01*
X0230929Y0212076D01*
X0231947Y0211058D01*
X0231947Y0208005D01*
X0231947Y0205998D02*
X0231947Y0201928D01*
X0228894Y0208005D02*
X0235000Y0208005D01*
X0235000Y0211058D01*
X0233982Y0212076D01*
X0232964Y0212076D01*
X0231947Y0211058D01*
X0225100Y0217121D02*
X0222047Y0217121D01*
X0223064Y0219156D01*
X0223064Y0220174D01*
X0222047Y0221191D01*
X0220012Y0221191D01*
X0218994Y0220174D01*
X0218994Y0218139D01*
X0220012Y0217121D01*
X0225100Y0217121D02*
X0225100Y0221191D01*
X0228894Y0195851D02*
X0235000Y0195851D01*
X0229912Y0187753D02*
X0228894Y0187753D01*
X0228894Y0186735D01*
X0229912Y0186735D01*
X0229912Y0187753D01*
X0229912Y0184728D02*
X0228894Y0183711D01*
X0228894Y0180658D01*
X0235000Y0180658D01*
X0235000Y0183711D01*
X0233982Y0184728D01*
X0232964Y0184728D01*
X0231947Y0183711D01*
X0231947Y0180658D01*
X0235000Y0178651D02*
X0228894Y0178651D01*
X0228894Y0174581D02*
X0235000Y0174581D01*
X0232964Y0176616D01*
X0235000Y0178651D01*
X0235000Y0172574D02*
X0235000Y0168504D01*
X0228894Y0168504D01*
X0228894Y0172574D01*
X0231947Y0170539D02*
X0231947Y0168504D01*
X0225100Y0166497D02*
X0224082Y0164462D01*
X0222047Y0162427D01*
X0222047Y0165479D01*
X0221029Y0166497D01*
X0220012Y0166497D01*
X0218994Y0165479D01*
X0218994Y0163444D01*
X0220012Y0162427D01*
X0222047Y0162427D01*
X0218994Y0160420D02*
X0218994Y0156349D01*
X0218994Y0158384D02*
X0225100Y0158384D01*
X0223064Y0156349D01*
X0224082Y0154342D02*
X0220012Y0150272D01*
X0218994Y0151290D01*
X0218994Y0153325D01*
X0220012Y0154342D01*
X0224082Y0154342D01*
X0225100Y0153325D01*
X0225100Y0151290D01*
X0224082Y0150272D01*
X0220012Y0150272D01*
X0218994Y0148265D02*
X0218994Y0144195D01*
X0223064Y0148265D01*
X0224082Y0148265D01*
X0225100Y0147248D01*
X0225100Y0145213D01*
X0224082Y0144195D01*
X0228894Y0144195D02*
X0228894Y0147248D01*
X0229912Y0148265D01*
X0230929Y0148265D01*
X0231947Y0147248D01*
X0231947Y0144195D01*
X0231947Y0142188D02*
X0231947Y0138118D01*
X0232964Y0138118D02*
X0228894Y0138118D01*
X0228894Y0136111D02*
X0230929Y0134076D01*
X0230929Y0135093D02*
X0230929Y0132041D01*
X0228894Y0132041D02*
X0235000Y0132041D01*
X0235000Y0135093D01*
X0233982Y0136111D01*
X0231947Y0136111D01*
X0230929Y0135093D01*
X0232964Y0138118D02*
X0235000Y0140153D01*
X0232964Y0142188D01*
X0228894Y0142188D01*
X0228894Y0144195D02*
X0235000Y0144195D01*
X0235000Y0147248D01*
X0233982Y0148265D01*
X0232964Y0148265D01*
X0231947Y0147248D01*
X0235000Y0150272D02*
X0228894Y0150272D01*
X0228894Y0154342D01*
X0228894Y0156349D02*
X0228894Y0160420D01*
X0231947Y0158384D02*
X0231947Y0156349D01*
X0235000Y0156349D02*
X0228894Y0156349D01*
X0235000Y0156349D02*
X0235000Y0160420D01*
X0222047Y0174581D02*
X0222047Y0178651D01*
X0229912Y0184728D02*
X0230929Y0184728D01*
X0231947Y0183711D01*
X0225100Y0136111D02*
X0225100Y0132041D01*
X0218994Y0132041D01*
X0218994Y0136111D01*
X0222047Y0134076D02*
X0222047Y0132041D01*
X0221029Y0130034D02*
X0220012Y0130034D01*
X0218994Y0129016D01*
X0218994Y0126981D01*
X0220012Y0125963D01*
X0220012Y0123956D02*
X0224082Y0123956D01*
X0225100Y0122939D01*
X0225100Y0120904D01*
X0224082Y0119886D01*
X0220012Y0119886D01*
X0218994Y0120904D01*
X0218994Y0122939D01*
X0220012Y0123956D01*
X0222047Y0126981D02*
X0222047Y0129016D01*
X0221029Y0130034D01*
X0224082Y0130034D02*
X0225100Y0129016D01*
X0225100Y0126981D01*
X0224082Y0125963D01*
X0223064Y0125963D01*
X0222047Y0126981D01*
X0228894Y0125963D02*
X0232964Y0125963D01*
X0235000Y0127998D01*
X0232964Y0130034D01*
X0228894Y0130034D01*
X0231947Y0130034D02*
X0231947Y0125963D01*
X0228894Y0123956D02*
X0228894Y0119886D01*
X0235000Y0119886D01*
X0235000Y0123956D01*
X0231947Y0121921D02*
X0231947Y0119886D01*
X0228894Y0117879D02*
X0235000Y0117879D01*
X0235000Y0113809D02*
X0228894Y0113809D01*
X0230929Y0115844D01*
X0228894Y0117879D01*
X0225100Y0116862D02*
X0225100Y0114827D01*
X0224082Y0113809D01*
X0223064Y0113809D01*
X0222047Y0114827D01*
X0222047Y0116862D01*
X0221029Y0117879D01*
X0220012Y0117879D01*
X0218994Y0116862D01*
X0218994Y0114827D01*
X0220012Y0113809D01*
X0224082Y0117879D02*
X0225100Y0116862D01*
D12*
X0037209Y0118000D02*
X0037209Y0124000D01*
X0027209Y0124000D02*
X0027209Y0118000D01*
X0017209Y0118000D02*
X0017209Y0124000D01*
D13*
X0097484Y0088126D03*
X0107484Y0088126D03*
X0166146Y0110882D03*
X0166146Y0120882D03*
D14*
X0150831Y0121039D03*
X0152209Y0136000D03*
X0162209Y0136000D03*
X0172209Y0136000D03*
X0182209Y0136000D03*
X0191973Y0145094D03*
X0188036Y0160055D03*
X0182209Y0126000D03*
X0182209Y0116000D03*
X0182209Y0106000D03*
X0182209Y0096000D03*
X0182209Y0086000D03*
X0182209Y0076000D03*
X0172209Y0076000D03*
X0162209Y0076000D03*
X0152209Y0076000D03*
X0142209Y0076000D03*
X0132209Y0076000D03*
X0122209Y0076000D03*
X0112209Y0076000D03*
X0102209Y0076000D03*
X0092209Y0076000D03*
X0082209Y0076000D03*
X0072209Y0076000D03*
X0062209Y0076000D03*
X0052209Y0076000D03*
X0038429Y0084465D03*
X0051028Y0060843D03*
X0060477Y0040370D03*
X0075988Y0041000D03*
X0075988Y0051000D03*
X0085988Y0051000D03*
X0085988Y0041000D03*
X0085988Y0031000D03*
X0075988Y0031000D03*
X0075988Y0021000D03*
X0085988Y0021000D03*
X0096697Y0040370D03*
X0110870Y0052969D03*
X0110870Y0062417D03*
X0131343Y0065567D03*
X0150831Y0091039D03*
X0142209Y0136000D03*
X0132209Y0136000D03*
X0122209Y0136000D03*
X0112209Y0136000D03*
X0102209Y0136000D03*
X0092209Y0136000D03*
X0082209Y0136000D03*
X0072209Y0136000D03*
X0062209Y0136000D03*
X0052209Y0136000D03*
X0073154Y0124189D03*
X0095122Y0149031D03*
X0085673Y0156906D03*
X0078902Y0167693D03*
X0090398Y0180528D03*
X0099847Y0171079D03*
X0079374Y0201000D03*
X0044729Y0188402D03*
X0044729Y0167929D03*
X0076225Y0063992D03*
X0205359Y0122260D03*
X0225831Y0098638D03*
X0213233Y0073441D03*
D15*
X0069709Y0188187D03*
X0059709Y0188187D03*
X0054709Y0193813D03*
D16*
X0064709Y0193813D03*
D17*
X0043547Y0151000D03*
X0017209Y0136000D03*
X0052209Y0116000D03*
X0087209Y0111000D03*
X0116776Y0105724D03*
X0133311Y0105724D03*
X0136855Y0089583D03*
X0122681Y0089583D03*
X0169138Y0088402D03*
X0126225Y0152969D03*
X0027209Y0076000D03*
X0027209Y0061000D03*
D18*
X0169409Y0161000D02*
X0175009Y0161000D01*
X0175009Y0171000D02*
X0169409Y0171000D01*
X0169409Y0181000D02*
X0175009Y0181000D01*
X0175009Y0191000D02*
X0169409Y0191000D01*
X0169409Y0201000D02*
X0175009Y0201000D01*
D19*
X0152209Y0156276D03*
X0152209Y0146276D03*
X0140359Y0146276D03*
X0140359Y0156276D03*
X0112209Y0156276D03*
X0112209Y0146276D03*
X0097209Y0121000D03*
X0087209Y0121000D03*
X0057209Y0166000D03*
X0057209Y0176000D03*
X0090595Y0190961D03*
X0090595Y0200961D03*
D20*
X0201288Y0200995D02*
X0206488Y0200995D01*
X0206488Y0191153D02*
X0201288Y0191153D01*
X0201288Y0210838D02*
X0206488Y0210838D01*
D21*
X0203888Y0210838D02*
X0163228Y0210838D01*
X0154965Y0202575D01*
X0154965Y0180449D01*
X0145516Y0171000D01*
X0172209Y0171000D01*
X0192839Y0171000D01*
X0203784Y0160055D01*
X0203784Y0123835D01*
X0205359Y0122260D01*
X0194335Y0110449D02*
X0193547Y0110449D01*
X0189610Y0106512D01*
X0182721Y0106512D01*
X0182209Y0106000D01*
X0182524Y0105724D02*
X0182799Y0106000D01*
X0193547Y0110449D02*
X0193547Y0143520D01*
X0191973Y0145094D01*
X0188036Y0160055D02*
X0172288Y0144307D01*
X0172288Y0136079D01*
X0172209Y0136000D01*
X0194335Y0110449D02*
X0204571Y0100213D01*
X0221107Y0100213D01*
X0224256Y0097063D01*
X0225831Y0098638D01*
X0213233Y0073441D02*
X0210870Y0073441D01*
X0134886Y0007299D01*
X0077799Y0007299D01*
X0066776Y0018323D01*
X0066776Y0024622D01*
X0073154Y0031000D01*
X0075988Y0031000D01*
X0075988Y0021000D02*
X0075988Y0016748D01*
X0079138Y0013598D01*
X0127012Y0013598D01*
X0182130Y0062417D01*
X0182209Y0074543D01*
X0182209Y0076000D01*
X0142209Y0076000D02*
X0142209Y0084228D01*
X0136855Y0089583D01*
X0122209Y0076000D02*
X0120319Y0074110D01*
X0120319Y0049819D01*
X0110870Y0040370D01*
X0096697Y0040370D01*
X0087484Y0032496D02*
X0085988Y0031000D01*
X0087484Y0032496D02*
X0117170Y0032496D01*
X0131343Y0048244D01*
X0131343Y0065567D01*
X0110870Y0062417D02*
X0102209Y0071079D01*
X0102209Y0076000D01*
X0094059Y0084465D02*
X0049453Y0084465D01*
X0044729Y0079740D01*
X0044729Y0067142D01*
X0051028Y0060843D01*
X0065201Y0051394D02*
X0065201Y0045094D01*
X0060477Y0040370D01*
X0065201Y0051394D02*
X0076225Y0062417D01*
X0076225Y0063992D01*
X0087957Y0052969D02*
X0085988Y0051000D01*
X0087957Y0052969D02*
X0110870Y0052969D01*
X0094059Y0084465D02*
X0097484Y0088126D01*
X0116776Y0105724D02*
X0116776Y0117142D01*
X0104177Y0129740D01*
X0104177Y0134031D01*
X0102209Y0136000D01*
X0095122Y0149031D02*
X0095122Y0152181D01*
X0112445Y0171079D01*
X0112524Y0171000D01*
X0145516Y0171000D01*
X0112445Y0171079D02*
X0092563Y0190961D01*
X0090595Y0190961D01*
X0079374Y0183677D02*
X0079374Y0201000D01*
X0079374Y0183677D02*
X0061697Y0166000D01*
X0057209Y0166000D01*
X0044729Y0167929D02*
X0044729Y0188402D01*
X0078902Y0167693D02*
X0079138Y0167693D01*
X0090398Y0180528D01*
X0099847Y0171079D02*
X0085673Y0156906D01*
X0075437Y0147457D02*
X0082209Y0140685D01*
X0082209Y0136000D01*
X0075437Y0147457D02*
X0047091Y0147457D01*
X0043547Y0151000D01*
X0052209Y0136000D02*
X0052406Y0135803D01*
X0052406Y0130646D01*
X0058862Y0124189D01*
X0073154Y0124189D01*
X0073154Y0116039D01*
X0038429Y0084465D01*
X0122288Y0129740D02*
X0133311Y0118717D01*
X0133311Y0105724D01*
X0122288Y0129740D02*
X0122288Y0135921D01*
X0122209Y0136000D01*
M02*
